name ./resultDataOpenSim/trcMotMarkerGrf/sub09/grf-13-06.mot
datacolumns 19
datarows 22
range 0.47600000 0.56000000
endheader

                time	     ground_force_vx	     ground_force_vy	     ground_force_vz	     ground_force_px	     ground_force_py	     ground_force_pz	   l_ground_force_vx	   l_ground_force_vy	   l_ground_force_vz	   l_ground_force_px	   l_ground_force_py	   l_ground_force_pz	     ground_torque_x	     ground_torque_y	     ground_torque_z	   l_ground_torque_x	   l_ground_torque_y	   l_ground_torque_z	
          0.47600000	         22.22231147	        386.15481085	        -27.71676806	         -0.64200029	          0.00000000	          0.11731533	          0.00000000	          0.00000000	          0.00000000	          0.00000000	          0.00000000	          0.00000000	          0.00000000	          3.53806492	          0.00000000	          0.00000000	          0.00000000	          0.00000000	
          0.48000000	         26.04455873	        391.18040450	        -29.10787832	         -0.64179847	          0.00000000	          0.11758214	          0.00000000	          0.00000000	          0.00000000	          0.00000000	          0.00000000	          0.00000000	          0.00000000	          3.59105622	          0.00000000	          0.00000000	          0.00000000	          0.00000000	
          0.48400000	         30.27186680	        396.78575919	        -30.14421051	         -0.64159331	          0.00000000	          0.11779788	          0.00000000	          0.00000000	          0.00000000	          0.00000000	          0.00000000	          0.00000000	          0.00000000	          3.68573048	          0.00000000	          0.00000000	          0.00000000	          0.00000000	
          0.48800000	         34.80653961	        403.01239556	        -30.69238958	         -0.64138020	          0.00000000	          0.11792717	          0.00000000	          0.00000000	          0.00000000	          0.00000000	          0.00000000	          0.00000000	          0.00000000	          3.83680840	          0.00000000	          0.00000000	          0.00000000	          0.00000000	
          0.49200000	         39.47792100	        409.93686308	        -30.69839322	         -0.64115018	          0.00000000	          0.11794532	          0.00000000	          0.00000000	          0.00000000	          0.00000000	          0.00000000	          0.00000000	          0.00000000	          4.05322908	          0.00000000	          0.00000000	          0.00000000	          0.00000000	
          0.49600000	         44.09344211	        417.69892753	        -30.19443934	         -0.64089745	          0.00000000	          0.11783532	          0.00000000	          0.00000000	          0.00000000	          0.00000000	          0.00000000	          0.00000000	          0.00000000	          4.33706693	          0.00000000	          0.00000000	          0.00000000	          0.00000000	
          0.50000000	         48.48098951	        426.53189295	        -29.26842718	         -0.64065167	          0.00000000	          0.11757721	          0.00000000	          0.00000000	          0.00000000	          0.00000000	          0.00000000	          0.00000000	          0.00000000	          4.68302320	          0.00000000	          0.00000000	          0.00000000	          0.00000000	
          0.50400000	         52.53903741	        436.68042031	        -28.04678681	         -0.64053425	          0.00000000	          0.11712770	          0.00000000	          0.00000000	          0.00000000	          0.00000000	          0.00000000	          0.00000000	          0.00000000	          5.07836733	          0.00000000	          0.00000000	          0.00000000	          0.00000000	
          0.50800000	         56.28790260	        448.20615327	        -26.69718171	         -0.64058140	          0.00000000	          0.11653375	          0.00000000	          0.00000000	          0.00000000	          0.00000000	          0.00000000	          0.00000000	          0.00000000	          5.50365710	          0.00000000	          0.00000000	          0.00000000	          0.00000000	
          0.51200000	         59.85678010	        460.92541881	        -25.40053382	         -0.64062048	          0.00000000	          0.11592249	          0.00000000	          0.00000000	          0.00000000	          0.00000000	          0.00000000	          0.00000000	          0.00000000	          5.93480331	          0.00000000	          0.00000000	          0.00000000	          0.00000000	
          0.51600000	         63.41589182	        474.60210876	        -24.29626564	         -0.64043162	          0.00000000	          0.11540716	          0.00000000	          0.00000000	          0.00000000	          0.00000000	          0.00000000	          0.00000000	          0.00000000	          6.34644412	          0.00000000	          0.00000000	          0.00000000	          0.00000000	
          0.52000000	         67.14697600	        489.16573729	        -23.45369193	         -0.64002647	          0.00000000	          0.11499616	          0.00000000	          0.00000000	          0.00000000	          0.00000000	          0.00000000	          0.00000000	          0.00000000	          6.71567600	          0.00000000	          0.00000000	          0.00000000	          0.00000000	
          0.52400000	         71.23115824	        504.70344489	        -22.89300495	         -0.63963604	          0.00000000	          0.11462575	          0.00000000	          0.00000000	          0.00000000	          0.00000000	          0.00000000	          0.00000000	          0.00000000	          7.02492087	          0.00000000	          0.00000000	          0.00000000	          0.00000000	
          0.52800000	         75.77369431	        521.25872887	        -22.62267912	         -0.63945223	          0.00000000	          0.11425416	          0.00000000	          0.00000000	          0.00000000	          0.00000000	          0.00000000	          0.00000000	          0.00000000	          7.26323050	          0.00000000	          0.00000000	          0.00000000	          0.00000000	
          0.53200000	         80.72602442	        538.64670357	        -22.65211853	         -0.63941409	          0.00000000	          0.11390764	          0.00000000	          0.00000000	          0.00000000	          0.00000000	          0.00000000	          0.00000000	          0.00000000	          7.42601283	          0.00000000	          0.00000000	          0.00000000	          0.00000000	
          0.53600000	         85.91175075	        556.46610799	        -22.98864178	         -0.63930742	          0.00000000	          0.11365023	          0.00000000	          0.00000000	          0.00000000	          0.00000000	          0.00000000	          0.00000000	          0.00000000	          7.51354677	          0.00000000	          0.00000000	          0.00000000	          0.00000000	
          0.54000000	         91.13280001	        574.31954252	        -23.63750030	         -0.63900191	          0.00000000	          0.11351373	          0.00000000	          0.00000000	          0.00000000	          0.00000000	          0.00000000	          0.00000000	          0.00000000	          7.52880366	          0.00000000	          0.00000000	          0.00000000	          0.00000000	
          0.54400000	         96.25207231	        592.00899292	        -24.60232604	         -0.63858189	          0.00000000	          0.11345545	          0.00000000	          0.00000000	          0.00000000	          0.00000000	          0.00000000	          0.00000000	          0.00000000	          7.47517008	          0.00000000	          0.00000000	          0.00000000	          0.00000000	
          0.54800000	        101.20879047	        609.46827050	        -25.88698103	         -0.63822450	          0.00000000	          0.11340493	          0.00000000	          0.00000000	          0.00000000	          0.00000000	          0.00000000	          0.00000000	          0.00000000	          7.35474254	          0.00000000	          0.00000000	          0.00000000	          0.00000000	
          0.55200000	        105.99956956	        626.54404385	        -27.49266894	         -0.63797839	          0.00000000	          0.11334246	          0.00000000	          0.00000000	          0.00000000	          0.00000000	          0.00000000	          0.00000000	          0.00000000	          7.16789781	          0.00000000	          0.00000000	          0.00000000	          0.00000000	
          0.55600000	        110.66688599	        642.94297511	        -29.39760300	         -0.63772283	          0.00000000	          0.11330372	          0.00000000	          0.00000000	          0.00000000	          0.00000000	          0.00000000	          0.00000000	          0.00000000	          6.91452768	          0.00000000	          0.00000000	          0.00000000	          0.00000000	
          0.56000000	        115.30179830	        658.40972627	        -31.53645628	         -0.63733413	          0.00000000	          0.11331503	          0.00000000	          0.00000000	          0.00000000	          0.00000000	          0.00000000	          0.00000000	          0.00000000	          6.59654207	          0.00000000	          0.00000000	          0.00000000	          0.00000000	
